<svg xmlns="http://www.w3.org/2000/svg" width="900" height="520" viewBox="0 0 900 520">
  <defs>
    <linearGradient id="bg5" x1="0" y1="0" x2="1" y2="1">
      <stop offset="0" stop-color="#050918"/>
      <stop offset="1" stop-color="#0b1128"/>
    </linearGradient>
    <linearGradient id="g5" x1="0" y1="0" x2="1" y2="1">
      <stop offset="0" stop-color="#3be1ff"/>
      <stop offset="1" stop-color="#f472b6"/>
    </linearGradient>
    <radialGradient id="glow5" cx="0.5" cy="0.5" r="0.5">
      <stop offset="0" stop-color="#3be1ff" stop-opacity="0.55"/>
      <stop offset="1" stop-color="#3be1ff" stop-opacity="0"/>
    </radialGradient>
  </defs>
  <rect width="900" height="520" fill="url(#bg5)"/>
  <rect width="900" height="520" fill="none" stroke="#3be1ff22" stroke-width="1"/>
  <g stroke="#f472b61a" stroke-width="1">
    <line x1="185" y1="0" x2="185" y2="520"/>
<line x1="251" y1="0" x2="251" y2="520"/>
<line x1="317" y1="0" x2="317" y2="520"/>
<line x1="383" y1="0" x2="383" y2="520"/>
<line x1="449" y1="0" x2="449" y2="520"/>
<line x1="515" y1="0" x2="515" y2="520"/>
<line x1="581" y1="0" x2="581" y2="520"/>
<line x1="647" y1="0" x2="647" y2="520"/>
<line x1="713" y1="0" x2="713" y2="520"/>
<line x1="779" y1="0" x2="779" y2="520"/>
<line x1="845" y1="0" x2="845" y2="520"/>
<line x1="11" y1="0" x2="11" y2="520"/>
<line x1="77" y1="0" x2="77" y2="520"/>
<line x1="143" y1="0" x2="143" y2="520"/>
    <line x1="0" y1="185" x2="900" y2="185"/>
<line x1="0" y1="245" x2="900" y2="245"/>
<line x1="0" y1="305" x2="900" y2="305"/>
<line x1="0" y1="365" x2="900" y2="365"/>
<line x1="0" y1="425" x2="900" y2="425"/>
<line x1="0" y1="485" x2="900" y2="485"/>
<line x1="0" y1="25" x2="900" y2="25"/>
<line x1="0" y1="85" x2="900" y2="85"/>
<line x1="0" y1="145" x2="900" y2="145"/>
  </g>
  <circle cx="491.5945416113131" cy="164.95958390264397" r="190" fill="url(#glow5)"/>
  <g transform="translate(450 250)">
    <circle cx="130.0" cy="0.0" r="7" fill="#f472b6" fill-opacity="0.75">
        <animate attributeName="r" values="5;9;5" dur="2.0s" repeatCount="indefinite"/>
      </circle>
<circle cx="135.1" cy="78.0" r="7" fill="#3be1ff" fill-opacity="0.75">
        <animate attributeName="r" values="5;9;5" dur="2.4s" repeatCount="indefinite"/>
      </circle>
<circle cx="91.0" cy="157.6" r="7" fill="#f472b6" fill-opacity="0.75">
        <animate attributeName="r" values="5;9;5" dur="2.8s" repeatCount="indefinite"/>
      </circle>
<circle cx="0.0" cy="130.0" r="7" fill="#3be1ff" fill-opacity="0.75">
        <animate attributeName="r" values="5;9;5" dur="2.0s" repeatCount="indefinite"/>
      </circle>
<circle cx="-78.0" cy="135.1" r="7" fill="#f472b6" fill-opacity="0.75">
        <animate attributeName="r" values="5;9;5" dur="2.4s" repeatCount="indefinite"/>
      </circle>
<circle cx="-157.6" cy="91.0" r="7" fill="#3be1ff" fill-opacity="0.75">
        <animate attributeName="r" values="5;9;5" dur="2.8s" repeatCount="indefinite"/>
      </circle>
<circle cx="-130.0" cy="0.0" r="7" fill="#f472b6" fill-opacity="0.75">
        <animate attributeName="r" values="5;9;5" dur="2.0s" repeatCount="indefinite"/>
      </circle>
<circle cx="-135.1" cy="-78.0" r="7" fill="#3be1ff" fill-opacity="0.75">
        <animate attributeName="r" values="5;9;5" dur="2.4s" repeatCount="indefinite"/>
      </circle>
<circle cx="-91.0" cy="-157.6" r="7" fill="#f472b6" fill-opacity="0.75">
        <animate attributeName="r" values="5;9;5" dur="2.8s" repeatCount="indefinite"/>
      </circle>
<circle cx="-0.0" cy="-130.0" r="7" fill="#3be1ff" fill-opacity="0.75">
        <animate attributeName="r" values="5;9;5" dur="2.0s" repeatCount="indefinite"/>
      </circle>
<circle cx="78.0" cy="-135.1" r="7" fill="#f472b6" fill-opacity="0.75">
        <animate attributeName="r" values="5;9;5" dur="2.4s" repeatCount="indefinite"/>
      </circle>
<circle cx="157.6" cy="-91.0" r="7" fill="#3be1ff" fill-opacity="0.75">
        <animate attributeName="r" values="5;9;5" dur="2.8s" repeatCount="indefinite"/>
      </circle>
  </g>
  <text x="44" y="430" font-family="JetBrains Mono, monospace, sans-serif" font-size="34" font-weight="700" fill="url(#g5)">Agentic-RAG</text>
  <text x="44" y="464" font-family="JetBrains Mono, monospace, sans-serif" font-size="15" letter-spacing="4" fill="#8b93b0">AI × SCIENCE — 185</text>
</svg>